<svg width="124" height="125" viewBox="0 0 124 125" fill="none" xmlns="http://www.w3.org/2000/svg">
<ellipse opacity="0.1" cx="62" cy="120.333" rx="62" ry="3.72" fill="#979797"/>
<path fill-rule="evenodd" clip-rule="evenodd" d="M88.795 20.3447C89.8632 18.8906 91.9078 18.5778 93.3619 19.646C94.816 20.7142 95.1288 22.7589 94.0606 24.213L90.0817 29.6291C89.0135 31.0832 86.9688 31.396 85.5147 30.3278C84.0607 29.2596 83.7479 27.2149 84.8161 25.7608L88.795 20.3447ZM91.8936 21.6447C91.5434 21.3874 91.0509 21.4627 90.7936 21.813L86.8147 27.2291C86.5574 27.5793 86.6328 28.0718 86.983 28.3291C87.3333 28.5864 87.8257 28.5111 88.083 28.1609L92.0619 22.7447C92.3192 22.3945 92.2439 21.902 91.8936 21.6447ZM29.8819 52.4361C29.8819 36.5535 42.7573 23.6782 58.6399 23.6782C74.5224 23.6782 87.3978 36.5535 87.3978 52.4361C87.3978 68.3187 74.5224 81.1941 58.6399 81.1941C42.7573 81.1941 29.8819 68.3187 29.8819 52.4361ZM58.6399 21.1982C41.3876 21.1982 27.4019 35.1839 27.4019 52.4361C27.4019 69.6884 41.3876 83.6741 58.6399 83.6741C64.3113 83.6741 69.6298 82.1627 74.2144 79.5206L78.269 83.5752C78.1531 85.2984 78.7538 87.0607 80.0709 88.3778L92.582 100.889C95.0033 103.31 98.9289 103.31 101.35 100.889L104.048 98.1913C106.469 95.77 106.469 91.8444 104.048 89.4231L91.5367 76.912C90.2193 75.5946 88.4565 74.994 86.733 75.1102L83.2721 71.6494C87.4113 66.3503 89.8778 59.6813 89.8778 52.4361C89.8778 35.1839 75.8921 21.1982 58.6399 21.1982ZM84.0449 75.9294L81.6637 73.5482C80.0779 75.2768 78.2999 76.8262 76.3637 78.1627L79.0878 80.8868C79.3525 80.4303 79.6801 80.0004 80.0709 79.6097L82.7686 76.912C83.1591 76.5215 83.5888 76.1939 84.0449 75.9294ZM72.9771 48.6817C73.5896 48.3755 73.8379 47.6306 73.5316 47.0181C73.2254 46.4056 72.4805 46.1573 71.868 46.4636L62.1389 51.3281C61.7188 51.5381 61.4535 51.9675 61.4535 52.4372C61.4535 52.9069 61.7188 53.3362 62.1389 53.5463L71.868 58.4108C72.4805 58.7171 73.2254 58.4688 73.5316 57.8563C73.8379 57.2437 73.5896 56.4989 72.9771 56.1926L65.4662 52.4372L72.9771 48.6817ZM43.7469 47.0181C43.4406 47.6306 43.6889 48.3755 44.3014 48.6817L51.8123 52.4372L44.3014 56.1926C43.6889 56.4989 43.4406 57.2437 43.7469 57.8563C44.0531 58.4688 44.798 58.7171 45.4105 58.4108L55.1396 53.5463C55.5597 53.3362 55.825 52.9069 55.825 52.4372C55.825 51.9675 55.5597 51.5381 55.1396 51.3281L45.4105 46.4636C44.798 46.1573 44.0531 46.4056 43.7469 47.0181ZM37.9891 52.4358C37.9891 41.0309 47.2346 31.7854 58.6395 31.7854C70.0444 31.7854 79.2899 41.0309 79.2899 52.4358C79.2899 63.8407 70.0444 73.0862 58.6395 73.0862C47.2346 73.0862 37.9891 63.8407 37.9891 52.4358ZM58.6395 29.3054C45.865 29.3054 35.5091 39.6612 35.5091 52.4358C35.5091 65.2104 45.865 75.5662 58.6395 75.5662C71.4141 75.5662 81.7699 65.2104 81.7699 52.4358C81.7699 39.6612 71.4141 29.3054 58.6395 29.3054ZM102.566 32.3547C102.018 30.6358 100.18 29.6871 98.4608 30.2355L92.0583 32.2786C90.3394 32.8271 89.3906 34.6651 89.9391 36.384C90.4876 38.1028 92.3256 39.0516 94.0445 38.5031L100.447 36.4601C102.166 35.9116 103.115 34.0736 102.566 32.3547ZM99.2147 32.5982C99.6287 32.4661 100.071 32.6946 100.204 33.1086C100.336 33.5226 100.107 33.9654 99.6931 34.0975L93.2906 36.1405C92.8766 36.2726 92.4338 36.0441 92.3017 35.6301C92.1696 35.2161 92.3981 34.7733 92.8122 34.6412L99.2147 32.5982ZM18.9436 70.8905C17.2114 71.3953 16.2164 73.2087 16.7211 74.9409C17.2259 76.6731 19.0393 77.6681 20.7715 77.1634L27.2238 75.2832C28.956 74.7784 29.951 72.965 29.4462 71.2328C28.9415 69.5006 27.128 68.5055 25.3958 69.0103L18.9436 70.8905ZM19.1021 74.2471C18.9805 73.8298 19.2202 73.393 19.6374 73.2715L26.0897 71.3913C26.5069 71.2697 26.9437 71.5094 27.0653 71.9266C27.1868 72.3438 26.9472 72.7806 26.5299 72.9022L20.0777 74.7824C19.6605 74.904 19.2237 74.6643 19.1021 74.2471ZM25.5032 87.946C24.0767 86.8413 23.8158 84.7893 24.9204 83.3628L29.0353 78.0492C30.1399 76.6227 32.1919 76.3618 33.6184 77.4665C35.045 78.5711 35.3059 80.6231 34.2012 82.0496L30.0864 87.3633C28.9817 88.7898 26.9297 89.0507 25.5032 87.946ZM26.8813 84.8812C26.6152 85.2248 26.678 85.7191 27.0216 85.9852C27.3652 86.2513 27.8595 86.1884 28.1256 85.8448L32.2404 80.5312C32.5065 80.1876 32.4436 79.6933 32.1 79.4273C31.7564 79.1612 31.2621 79.224 30.9961 79.5676L26.8813 84.8812Z" fill="#979797"/>
</svg>
